<?xml version="1.0" encoding="UTF-8" standalone="no"?>
<!-- Created with Inkscape (http://www.inkscape.org/) -->

<svg
   width="16mm"
   height="16mm"
   viewBox="0 0 16 16"
   version="1.1"
   id="svg1"
   xml:space="preserve"
   sodipodi:docname="FileMeshNode.svg"
   inkscape:version="1.4.2 (f4327f4, 2025-05-13)"
   xmlns:inkscape="http://www.inkscape.org/namespaces/inkscape"
   xmlns:sodipodi="http://sodipodi.sourceforge.net/DTD/sodipodi-0.dtd"
   xmlns="http://www.w3.org/2000/svg"
   xmlns:svg="http://www.w3.org/2000/svg"><sodipodi:namedview
     id="namedview1"
     pagecolor="#505050"
     bordercolor="#ffffff"
     borderopacity="1"
     inkscape:showpageshadow="0"
     inkscape:pageopacity="0"
     inkscape:pagecheckerboard="1"
     inkscape:deskcolor="#505050"
     inkscape:document-units="mm"
     inkscape:zoom="9.5298291"
     inkscape:cx="32.057238"
     inkscape:cy="38.143391"
     inkscape:window-width="1920"
     inkscape:window-height="1017"
     inkscape:window-x="-8"
     inkscape:window-y="-8"
     inkscape:window-maximized="1"
     inkscape:current-layer="layer1"
     showguides="false" /><defs
     id="defs1"><rect
       x="16.313088"
       y="9.6174174"
       width="29.460949"
       height="38.34793"
       id="rect10" /><rect
       x="10.956551"
       y="6.086973"
       width="34.452267"
       height="42.121853"
       id="rect9" /><rect
       x="11.32177"
       y="14.121777"
       width="27.756597"
       height="14.730475"
       id="rect8" /><rect
       x="12.539164"
       y="12.904383"
       width="19.113095"
       height="15.947869"
       id="rect7" /></defs><g
     inkscape:label="Layer 1"
     inkscape:groupmode="layer"
     id="layer1"><path
       d="m 2.4698971,13.591544 c 0.2682065,0.05365 0.7107469,0.154218 1.3276219,0.301735 0.6034643,0.160923 1.1801081,0.281618 1.7299313,0.362077 C 5.2592439,13.102067 4.8502291,11.365432 4.300406,9.0454473 4.4345092,8.8979339 4.5753176,8.8308821 4.7228311,8.8442923 c 0.1475135,0 0.3620786,0.020115 0.6436954,0.060349 0.7107467,1.5153647 1.7768674,3.7817087 3.1983614,6.7990297 0.7777988,-0.227973 1.6226481,-0.41572 2.5345501,-0.563234 0.898491,-0.160922 1.864034,-0.335255 2.89663,-0.523 -0.858261,-0.965543 -1.823806,-1.917676 -2.89663,-2.856398 C 10.026613,10.808903 8.9068511,9.7226683 7.7401532,8.5023295 8.652055,8.4084565 9.5840722,8.3749315 10.536204,8.4017524 11.488337,8.4151614 12.413649,8.4486874 13.31214,8.5023302 13.593758,8.1938918 13.861964,7.9055703 14.116761,7.6373639 14.358145,7.3825681 14.633058,7.0942462 14.941496,6.7723985 14.740341,6.0884716 14.398376,5.0826974 13.915607,3.755076 13.446245,2.4408645 13.01041,1.294282 12.608098,0.31532854 10.408807,0.51648331 8.4039642,0.73775351 6.593571,0.97913929 4.7965876,1.220525 3.1672338,1.4954366 1.7055089,1.8038739 1.7993814,3.2655991 1.9066638,5.183275 2.0273565,7.5569016 2.1346392,9.9171179 2.2821528,11.928666 2.4698971,13.591544 Z m 6.05476,-9.2732349 C 8.4978366,4.5731054 8.4374905,5.1028129 8.3436175,5.9074322 L 6.7343791,6.2292799 C 5.9297601,6.3902037 5.2056025,6.5444224 4.5619072,6.691936 4.4412143,6.5041916 4.3607525,6.1823439 4.3205215,5.726393 4.2802903,5.270442 4.3004059,4.5731054 4.380868,3.6343827 c 0.7912088,0.053642 1.4952506,0.1206932 2.1121256,0.201155 0.6168746,0.093872 1.2940958,0.2547961 2.0316635,0.4827714 z"
       id="text11"
       style="font-size:17.78px;font-family:'Blorx Fill';-inkscape-font-specification:'Blorx Fill, Normal';fill:#ffffff;fill-opacity:1;stroke:#ff2929;stroke-width:0.584181;stroke-dasharray:none;stroke-opacity:1"
       inkscape:label="RLogo"
       aria-label="R"
       sodipodi:nodetypes="cccccccccccccccccccccccscsccc" /><path
       style="display:none;fill:#ff00ff;fill-opacity:1;stroke:#000000;stroke-width:0.292423;stroke-linecap:butt;stroke-linejoin:miter;stroke-dasharray:none;stroke-opacity:1"
       id="path11"
       sodipodi:type="arc"
       sodipodi:cx="12.549617"
       sodipodi:cy="12.99375"
       sodipodi:rx="2.9822958"
       sodipodi:ry="2.8394516"
       sodipodi:start="1.0357307"
       sodipodi:end="1.0337314"
       sodipodi:open="true"
       sodipodi:arc-type="chord"
       d="M 14.070282,15.436346 A 2.9822958,2.8394516 0 0 1 9.9849015,14.4428 a 2.9822958,2.8394516 0 0 1 1.0414865,-3.890198 2.9822958,2.8394516 0 0 1 4.086421,0.989657 2.9822958,2.8394516 0 0 1 -1.037401,3.891187 z"
       inkscape:label="BaseSphere" /><g
       id="g322"
       inkscape:label="MiddleSphere"
       style="display:none"><path
         style="fill:#ff00ff;fill-opacity:1;stroke:#000000;stroke-width:0.3;stroke-linecap:butt;stroke-linejoin:miter;stroke-dasharray:none;stroke-opacity:1"
         d="m 9.6756499,12.799066 5.8164951,0.09717"
         id="path299" /><path
         style="fill:#ff00ff;fill-opacity:1;stroke:#000000;stroke-width:0.3;stroke-linecap:butt;stroke-linejoin:miter;stroke-dasharray:none;stroke-opacity:1"
         d="m 15.311681,12.091092 v 1.596413"
         id="path300" /><path
         style="fill:#ff00ff;fill-opacity:1;stroke:#000000;stroke-width:0.3;stroke-linecap:butt;stroke-linejoin:miter;stroke-dasharray:none;stroke-opacity:1"
         d="m 14.492652,12.132738 -0.02776,1.540885"
         id="path301" /><path
         style="fill:#ff00ff;fill-opacity:1;stroke:#000000;stroke-width:0.3;stroke-linecap:butt;stroke-linejoin:miter;stroke-dasharray:none;stroke-opacity:1"
         d="m 13.312695,12.091092 0.01388,1.665822"
         id="path302" /><path
         style="fill:#ff00ff;fill-opacity:1;stroke:#000000;stroke-width:0.3;stroke-linecap:butt;stroke-linejoin:miter;stroke-dasharray:none;stroke-opacity:1"
         d="m 10.633498,12.132738 0.04165,1.65194"
         id="path303" /><path
         style="fill:#ff00ff;fill-opacity:1;stroke:#000000;stroke-width:0.3;stroke-linecap:butt;stroke-linejoin:miter;stroke-dasharray:none;stroke-opacity:1"
         d="m 9.856114,12.132738 0.013883,1.624176"
         id="path304" /><path
         style="fill:#ff00ff;fill-opacity:1;stroke:#000000;stroke-width:0.3;stroke-linecap:butt;stroke-linejoin:miter;stroke-dasharray:none;stroke-opacity:1"
         d="m 11.744046,12.035565 0.01388,1.762995"
         id="path298" /></g><g
       id="g321"
       inkscape:label="BottomSphere"
       style="display:none"><path
         style="fill:#ff00ff;fill-opacity:1;stroke:#000000;stroke-width:0.3;stroke-linecap:butt;stroke-linejoin:miter;stroke-dasharray:none;stroke-opacity:1"
         d="m 13.075308,13.723809 0.01388,1.915695"
         id="path306" /><path
         style="fill:#ff00ff;fill-opacity:1;stroke:#000000;stroke-width:0.3;stroke-linecap:butt;stroke-linejoin:miter;stroke-dasharray:none;stroke-opacity:1"
         d="m 11.130454,14.46152 0.02776,0.652447"
         id="path307" /><path
         style="fill:#ff00ff;fill-opacity:1;stroke:#000000;stroke-width:0.3;stroke-linecap:butt;stroke-linejoin:miter;stroke-dasharray:none;stroke-opacity:1"
         d="m 10.827844,15.270036 3.345526,0.01388"
         id="path308" /><path
         style="fill:#ff00ff;fill-opacity:1;stroke:#000000;stroke-width:0.3;stroke-linecap:butt;stroke-linejoin:miter;stroke-dasharray:none;stroke-opacity:1"
         d="m 10.078224,14.47877 4.941939,-0.01388"
         id="path309" /><path
         style="fill:#ff00ff;fill-opacity:1;stroke:#000000;stroke-width:0.3;stroke-linecap:butt;stroke-linejoin:miter;stroke-dasharray:none;stroke-opacity:1"
         d="m 13.913391,14.492652 v 0.666329"
         id="path312" /><path
         style="fill:#ff00ff;fill-opacity:1;stroke:#000000;stroke-width:0.3;stroke-linecap:butt;stroke-linejoin:miter;stroke-dasharray:none;stroke-opacity:1"
         d="m 15.030267,14.025842 0.01388,-0.402574"
         id="path314" /><path
         style="fill:#ff00ff;fill-opacity:1;stroke:#000000;stroke-width:0.3;stroke-linecap:butt;stroke-linejoin:miter;stroke-dasharray:none;stroke-opacity:1"
         d="M 14.188239,14.051223 V 13.634767"
         id="path315" /><path
         style="fill:#ff00ff;fill-opacity:1;stroke:#000000;stroke-width:0.3;stroke-linecap:butt;stroke-linejoin:miter;stroke-dasharray:none;stroke-opacity:1"
         d="M 10.943661,14.252306 V 13.766441"
         id="path316" /><path
         style="fill:#ff00ff;fill-opacity:1;stroke:#000000;stroke-width:0.3;stroke-linecap:butt;stroke-linejoin:miter;stroke-dasharray:none;stroke-opacity:1"
         d="m 10.190674,14.169015 -0.01388,-0.444219"
         id="path317" /><path
         style="fill:#ff00ff;fill-opacity:1;stroke:#000000;stroke-width:0.3;stroke-linecap:butt;stroke-linejoin:miter;stroke-dasharray:none;stroke-opacity:1"
         d="m 10.938898,13.770796 0.01388,0.707974"
         id="path318" /><path
         style="fill:#ff00ff;fill-opacity:1;stroke:#000000;stroke-width:0.3;stroke-linecap:butt;stroke-linejoin:miter;stroke-dasharray:none;stroke-opacity:1"
         d="m 10.161515,13.743032 0.01388,0.74962"
         id="path319" /><path
         style="fill:#ff00ff;fill-opacity:1;stroke:#000000;stroke-width:0.3;stroke-linecap:butt;stroke-linejoin:miter;stroke-dasharray:none;stroke-opacity:1"
         d="m 14.201133,13.673623 -0.01388,0.777383"
         id="path320" /><path
         style="fill:#ff00ff;fill-opacity:1;stroke:#000000;stroke-width:0.3;stroke-linecap:butt;stroke-linejoin:miter;stroke-dasharray:none;stroke-opacity:1"
         d="m 15.047926,13.770796 -0.05553,0.74962"
         id="path321" /><path
         style="fill:#ff00ff;fill-opacity:1;stroke:#000000;stroke-width:0.3;stroke-linecap:butt;stroke-linejoin:miter;stroke-dasharray:none;stroke-opacity:1"
         d="m 12.073842,13.701795 -0.01388,1.943459"
         id="path305" /></g><g
       id="g321-4"
       inkscape:label="BottomSphere"
       transform="rotate(180,12.563603,12.963564)"
       style="display:none"><path
         style="fill:#ff00ff;fill-opacity:1;stroke:#000000;stroke-width:0.3;stroke-linecap:butt;stroke-linejoin:miter;stroke-dasharray:none;stroke-opacity:1"
         d="m 13.075308,13.723809 0.01388,1.915695"
         id="path306-8" /><path
         style="fill:#ff00ff;fill-opacity:1;stroke:#000000;stroke-width:0.3;stroke-linecap:butt;stroke-linejoin:miter;stroke-dasharray:none;stroke-opacity:1"
         d="m 11.130454,14.46152 0.02776,0.652447"
         id="path307-6" /><path
         style="fill:#ff00ff;fill-opacity:1;stroke:#000000;stroke-width:0.3;stroke-linecap:butt;stroke-linejoin:miter;stroke-dasharray:none;stroke-opacity:1"
         d="m 10.827844,15.270036 3.345526,0.01388"
         id="path308-5" /><path
         style="fill:#ff00ff;fill-opacity:1;stroke:#000000;stroke-width:0.3;stroke-linecap:butt;stroke-linejoin:miter;stroke-dasharray:none;stroke-opacity:1"
         d="m 10.078224,14.47877 4.941939,-0.01388"
         id="path309-0" /><path
         style="fill:#ff00ff;fill-opacity:1;stroke:#000000;stroke-width:0.3;stroke-linecap:butt;stroke-linejoin:miter;stroke-dasharray:none;stroke-opacity:1"
         d="m 13.913391,14.492652 v 0.666329"
         id="path312-9" /><path
         style="fill:#ff00ff;fill-opacity:1;stroke:#000000;stroke-width:0.3;stroke-linecap:butt;stroke-linejoin:miter;stroke-dasharray:none;stroke-opacity:1"
         d="m 15.030267,14.025842 0.01388,-0.402574"
         id="path314-0" /><path
         style="fill:#ff00ff;fill-opacity:1;stroke:#000000;stroke-width:0.3;stroke-linecap:butt;stroke-linejoin:miter;stroke-dasharray:none;stroke-opacity:1"
         d="M 14.188239,14.051223 V 13.634767"
         id="path315-0" /><path
         style="fill:#ff00ff;fill-opacity:1;stroke:#000000;stroke-width:0.3;stroke-linecap:butt;stroke-linejoin:miter;stroke-dasharray:none;stroke-opacity:1"
         d="M 10.943661,14.252306 V 13.766441"
         id="path316-6" /><path
         style="fill:#ff00ff;fill-opacity:1;stroke:#000000;stroke-width:0.3;stroke-linecap:butt;stroke-linejoin:miter;stroke-dasharray:none;stroke-opacity:1"
         d="m 10.190674,14.169015 -0.01388,-0.444219"
         id="path317-1" /><path
         style="fill:#ff00ff;fill-opacity:1;stroke:#000000;stroke-width:0.3;stroke-linecap:butt;stroke-linejoin:miter;stroke-dasharray:none;stroke-opacity:1"
         d="m 10.938898,13.770796 0.01388,0.707974"
         id="path318-3" /><path
         style="fill:#ff00ff;fill-opacity:1;stroke:#000000;stroke-width:0.3;stroke-linecap:butt;stroke-linejoin:miter;stroke-dasharray:none;stroke-opacity:1"
         d="m 10.161515,13.743032 0.01388,0.74962"
         id="path319-8" /><path
         style="fill:#ff00ff;fill-opacity:1;stroke:#000000;stroke-width:0.3;stroke-linecap:butt;stroke-linejoin:miter;stroke-dasharray:none;stroke-opacity:1"
         d="m 14.201133,13.673623 -0.01388,0.777383"
         id="path320-9" /><path
         style="fill:#ff00ff;fill-opacity:1;stroke:#000000;stroke-width:0.3;stroke-linecap:butt;stroke-linejoin:miter;stroke-dasharray:none;stroke-opacity:1"
         d="m 15.047926,13.770796 -0.05553,0.74962"
         id="path321-3" /><path
         style="fill:#ff00ff;fill-opacity:1;stroke:#000000;stroke-width:0.3;stroke-linecap:butt;stroke-linejoin:miter;stroke-dasharray:none;stroke-opacity:1"
         d="m 12.073842,13.701795 -0.01388,1.943459"
         id="path305-4" /></g></g></svg>
